<svg width="18" height="32" viewBox="0 0 18 32" fill="none" xmlns="http://www.w3.org/2000/svg">
<path d="M17.04 21.07C17.04 22.2367 16.7483 23.3333 16.165 24.36C15.605 25.3867 14.765 26.25 13.645 26.95C12.5483 27.65 11.2417 28.07 9.725 28.21V31.045H7.45V28.21C5.25667 28 3.48333 27.3117 2.13 26.145C0.776667 24.9783 0.1 23.4383 0.1 21.525H4.37C4.44 22.435 4.73167 23.1933 5.245 23.8C5.75833 24.3833 6.49333 24.7567 7.45 24.92V17.22C5.88667 16.8233 4.615 16.4267 3.635 16.03C2.655 15.61 1.815 14.9567 1.115 14.07C0.438333 13.1833 0.1 11.97 0.1 10.43C0.1 8.49333 0.776667 6.895 2.13 5.635C3.48333 4.35167 5.25667 3.605 7.45 3.395V0.559999H9.725V3.395C11.7783 3.58167 13.4233 4.235 14.66 5.355C15.92 6.45167 16.6317 7.96833 16.795 9.905H12.525C12.455 9.18167 12.175 8.54 11.685 7.98C11.195 7.39667 10.5417 7 9.725 6.79V14.35C11.2883 14.7233 12.56 15.12 13.54 15.54C14.52 15.9367 15.3483 16.5783 16.025 17.465C16.7017 18.3283 17.04 19.53 17.04 21.07ZM4.16 10.22C4.16 11.1767 4.44 11.9233 5 12.46C5.58333 12.9967 6.4 13.4283 7.45 13.755V6.685C6.44667 6.80167 5.64167 7.16333 5.035 7.77C4.45167 8.37667 4.16 9.19333 4.16 10.22ZM9.725 24.92C10.7517 24.7567 11.5567 24.3483 12.14 23.695C12.7233 23.0183 13.015 22.2133 13.015 21.28C13.015 20.3467 12.7233 19.6233 12.14 19.11C11.58 18.5733 10.775 18.1417 9.725 17.815V24.92Z" fill="#5A82FC"/>
</svg>
